<svg xmlns="http://www.w3.org/2000/svg" viewBox="0 0 1200 600" width="1200" height="600">
  <defs>
    <linearGradient id="bg-gradient" x1="0%" y1="0%" x2="100%" y2="100%">
      <stop offset="0%" stop-color="#1a237e" />
      <stop offset="100%" stop-color="#3949ab" />
    </linearGradient>
    <linearGradient id="duct-gradient" x1="0%" y1="0%" x2="100%" y2="0%">
      <stop offset="0%" stop-color="#b0bec5" />
      <stop offset="100%" stop-color="#607d8b" />
    </linearGradient>
  </defs>
  
  <rect width="100%" height="100%" fill="url(#bg-gradient)" />
  
  <rect x="200" y="250" width="800" height="200" fill="white" opacity="0.08" />
  <path d="M200 450h800v-200h-800z" fill="none" stroke="#fff" stroke-width="3" opacity="0.9" />
  <path d="M200 250l400-150 400 150" fill="none" stroke="#fff" stroke-width="3" opacity="0.9" />
  
  <line x1="500" y1="250" x2="500" y2="450" stroke="#fff" stroke-width="2" stroke-dasharray="10,5" opacity="0.7" />
  <line x1="700" y1="250" x2="700" y2="450" stroke="#fff" stroke-width="2" stroke-dasharray="10,5" opacity="0.7" />
  
  <rect x="320" y="350" width="80" height="60" rx="5" ry="5" fill="#78909c" stroke="#fff" stroke-width="2" />
  <rect x="330" y="360" width="60" height="40" rx="3" ry="3" fill="#546e7a" stroke="#fff" stroke-width="1" />
  <circle cx="355" cy="380" r="8" fill="#37474f" stroke="#fff" stroke-width="1" />
  
  <g>
    <path d="M400 380h350" stroke="url(#duct-gradient)" stroke-width="30" stroke-linecap="round" fill="none" />
    
    <path d="M450 380v-80" stroke="url(#duct-gradient)" stroke-width="20" stroke-linecap="round" fill="none" />
    <path d="M600 380v-80" stroke="url(#duct-gradient)" stroke-width="20" stroke-linecap="round" fill="none" />
    <path d="M750 380v-80" stroke="url(#duct-gradient)" stroke-width="20" stroke-linecap="round" fill="none" />

    <path d="M850 380c0-80-100-80-100-80h-50" stroke="url(#duct-gradient)" stroke-width="25" stroke-linecap="round" stroke-linejoin="round" fill="none" />
    
    <rect x="435" y="290" width="30" height="15" rx="2" ry="2" fill="#455a64" stroke="#fff" stroke-width="1" />
    <rect x="585" y="290" width="30" height="15" rx="2" ry="2" fill="#455a64" stroke="#fff" stroke-width="1" />
    <rect x="735" y="290" width="30" height="15" rx="2" ry="2" fill="#455a64" stroke="#fff" stroke-width="1" />
    
    <rect x="685" y="290" width="40" height="20" rx="2" ry="2" fill="#455a64" stroke="#fff" stroke-width="1" />
    <line x1="690" y1="290" x2="690" y2="310" stroke="#fff" stroke-width="1" opacity="0.7" />
    <line x1="700" y1="290" x2="700" y2="310" stroke="#fff" stroke-width="1" opacity="0.7" />
    <line x1="710" y1="290" x2="710" y2="310" stroke="#fff" stroke-width="1" opacity="0.7" />
    <line x1="720" y1="290" x2="720" y2="310" stroke="#fff" stroke-width="1" opacity="0.7" />
  </g>
  
  <g>
    <g opacity="0.8">
      <circle cx="500" cy="380" r="8" fill="#ff5252" />
      <path d="M500 380c-5-10-15-15-25-10" stroke="#ff5252" stroke-width="2" stroke-dasharray="4,3" fill="none" />
      <path d="M500 380c5-10 15-15 25-10" stroke="#ff5252" stroke-width="2" stroke-dasharray="4,3" fill="none" />
    </g>
    
    <g opacity="0.8">
      <circle cx="650" cy="380" r="8" fill="#ff5252" />
      <path d="M650 380c-5-10-15-15-25-10" stroke="#ff5252" stroke-width="2" stroke-dasharray="4,3" fill="none" />
      <path d="M650 380c5-10 15-15 25-10" stroke="#ff5252" stroke-width="2" stroke-dasharray="4,3" fill="none" />
    </g>
    
    <g opacity="0.8">
      <circle cx="800" cy="350" r="8" fill="#ff5252" />
      <path d="M800 350c-5-10-15-15-25-10" stroke="#ff5252" stroke-width="2" stroke-dasharray="4,3" fill="none" />
      <path d="M800 350c0-10 10-20 20-20" stroke="#ff5252" stroke-width="2" stroke-dasharray="4,3" fill="none" />
    </g>
    
    <g opacity="0.8">
      <path d="M450 290c0-15 0-30-10-40" stroke="#64b5f6" stroke-width="2" fill="none" />
      <path d="M440 250l-5 10h10z" fill="#64b5f6" />
    </g>
    
    <g opacity="0.8">
      <path d="M600 290c0-15 0-30-10-40" stroke="#64b5f6" stroke-width="2" fill="none" />
      <path d="M590 250l-5 10h10z" fill="#64b5f6" />
    </g>
    
    <g opacity="0.8">
      <path d="M750 290c0-15 0-30-10-40" stroke="#64b5f6" stroke-width="2" fill="none" />
      <path d="M740 250l-5 10h10z" fill="#64b5f6" />
    </g>
  </g>
</svg>
