<svg xmlns="http://www.w3.org/2000/svg" viewBox="0 0 1200 600" width="1200" height="600">
  <defs>
    <linearGradient id="bg-gradient" x1="0%" y1="0%" x2="100%" y2="100%">
      <stop offset="0%" stop-color="#165c4a" />
      <stop offset="100%" stop-color="#16a085" />
    </linearGradient>
    <pattern id="insulation-pattern" width="60" height="60" patternUnits="userSpaceOnUse">
      <path d="M0 0h60v60H0z" fill="#16a085" />
      <path d="M30 5L55 30 30 55 5 30z" fill="#1abc9c" />
    </pattern>
  </defs>
  
  <rect width="100%" height="100%" fill="url(#bg-gradient)" />
  
  <path d="M300 430h600v-250l-300-150-300 150z" fill="white" opacity="0.08" />
  <path d="M300 430h600v-250l-300-150-300 150z" fill="none" stroke="#fff" stroke-width="3" opacity="0.9" />
  
  <path d="M300 180l300-150 300 150" fill="none" stroke="#fff" stroke-width="5" opacity="0.9" />
  
  <rect x="400" y="250" width="120" height="100" fill="white" opacity="0.15" stroke="#fff" stroke-width="2" rx="4" ry="4" />
  <line x1="400" y1="300" x2="520" y2="300" stroke="#fff" stroke-width="2" />
  <line x1="460" y1="250" x2="460" y2="350" stroke="#fff" stroke-width="2" />
  
  <rect x="680" y="310" width="100" height="120" fill="white" opacity="0.15" stroke="#fff" stroke-width="2" rx="4" ry="4" />
  <circle cx="700" cy="370" r="4" fill="#fff" />
  
  <g opacity="0.95">
    <rect x="310" y="190" width="20" height="240" fill="url(#insulation-pattern)" />
    <rect x="870" y="190" width="20" height="240" fill="url(#insulation-pattern)" />
    
    <rect x="330" y="190" width="540" height="20" fill="url(#insulation-pattern)" />
    
    <rect x="330" y="410" width="540" height="20" fill="url(#insulation-pattern)" />
  </g>
  
  <g opacity="0.7">
    <path d="M260 220c-20 0-30 15-30 15" fill="none" stroke="#ff9933" stroke-width="3" />
    <path d="M230 235l10-15 5 8z" fill="#ff9933" />
    
    <path d="M260 300c-20 0-30 15-30 15" fill="none" stroke="#ff9933" stroke-width="3" />
    <path d="M230 315l10-15 5 8z" fill="#ff9933" />
    
    <path d="M260 380c-20 0-30 15-30 15" fill="none" stroke="#ff9933" stroke-width="3" />
    <path d="M230 395l10-15 5 8z" fill="#ff9933" />
    
    <path d="M940 220c20 0 30 15 30 15" fill="none" stroke="#66ccff" stroke-width="3" />
    <path d="M970 235l-10-15-5 8z" fill="#66ccff" />
    
    <path d="M940 300c20 0 30 15 30 15" fill="none" stroke="#66ccff" stroke-width="3" />
    <path d="M970 315l-10-15-5 8z" fill="#66ccff" />
    
    <path d="M940 380c20 0 30 15 30 15" fill="none" stroke="#66ccff" stroke-width="3" />
    <path d="M970 395l-10-15-5 8z" fill="#66ccff" />
  </g>
</svg>
